<?xml version="1.0" standalone="no"?>
<!DOCTYPE svg PUBLIC "-//W3C//DTD SVG 20010904//EN"
 "http://www.w3.org/TR/2001/REC-SVG-20010904/DTD/svg10.dtd">
<svg version="1.0" xmlns="http://www.w3.org/2000/svg"
 width="500.000000pt" height="500.000000pt" viewBox="0 0 500.000000 500.000000"
 preserveAspectRatio="xMidYMid meet">

<g transform="translate(0.000000,500.000000) scale(0.100000,-0.100000)"
fill="#000000" stroke="none">
<path d="M2415 3510 c-176 -16 -392 -87 -532 -173 -151 -94 -340 -302 -405
-447 -56 -123 -81 -194 -94 -258 -30 -158 -13 -209 79 -236 28 -8 87 -33 130
-56 69 -35 86 -40 147 -40 83 0 120 12 120 40 0 19 6 20 96 20 81 0 102 -3
131 -21 31 -19 45 -21 141 -16 73 3 117 10 139 21 28 15 64 17 254 16 197 0
227 -3 278 -21 109 -40 156 -49 261 -49 115 0 153 12 158 48 3 20 9 22 62 22
74 0 235 37 252 57 20 25 15 165 -10 253 -29 105 -111 277 -176 369 -95 134
-268 282 -421 359 -90 45 -272 95 -390 106 -122 13 -142 13 -220 6z"/>
<path d="M1156 2706 c-9 -14 -23 -26 -31 -26 -18 0 -19 -10 0 -33 7 -11 11
-25 9 -31 -3 -9 8 -13 39 -13 39 0 45 3 57 31 7 17 15 34 18 39 2 4 -3 7 -12
7 -8 0 -26 12 -39 26 l-24 25 -17 -25z"/>
<path d="M3826 2705 c-3 -8 -17 -17 -31 -21 -29 -7 -30 -12 -10 -37 7 -11 11
-25 9 -31 -3 -9 9 -13 41 -13 40 0 45 3 45 24 0 13 5 23 10 23 6 0 10 7 10 15
0 8 -7 15 -15 15 -8 0 -19 9 -25 20 -13 24 -26 26 -34 5z"/>
</g>
</svg>
